<mxGraphModel><root><mxCell id="0"/><mxCell id="1" parent="0"/><mxCell id="2" value="" style="ellipse;fillColor=strokeColor;" vertex="1" parent="1"><mxGeometry x="96" y="8" width="14" height="14" as="geometry"/></mxCell><mxCell id="3" value="State1" style="rounded=1;absoluteArcSize=1;arcSize=14;whiteSpace=wrap;strokeWidth=2;" vertex="1" parent="1"><mxGeometry x="73" y="72" width="61" height="34" as="geometry"/></mxCell><mxCell id="4" value="State2" style="rounded=1;absoluteArcSize=1;arcSize=14;whiteSpace=wrap;strokeWidth=2;" vertex="1" parent="1"><mxGeometry x="19" y="174" width="61" height="34" as="geometry"/></mxCell><mxCell id="5" value="State3" style="rounded=1;absoluteArcSize=1;arcSize=14;whiteSpace=wrap;strokeWidth=2;" vertex="1" parent="1"><mxGeometry x="73" y="277" width="61" height="34" as="geometry"/></mxCell><mxCell id="6" value="" style="curved=1;startArrow=none;;exitX=0.5188931056431362;exitY=1;entryX=0.496139401295146;entryY=0;" edge="1" parent="1" source="2" target="3"><mxGeometry relative="1" as="geometry"><Array as="points"/></mxGeometry></mxCell><mxCell id="7" value="Transition 1" style="curved=1;startArrow=none;;exitX=0.20718691242453247;exitY=0.9904157975140739;entryX=0.5031508148693647;entryY=0.01024335973403033;" edge="1" parent="1" source="3" target="4"><mxGeometry relative="1" as="geometry"><Array as="points"><mxPoint x="50" y="140"/></Array></mxGeometry></mxCell><mxCell id="8" value="Transition 2" style="curved=1;startArrow=none;;exitX=0.5031508148693647;exitY=1.0006591572481043;entryX=0.20718691242453247;entryY=-0.00892504523782169;" edge="1" parent="1" source="4" target="5"><mxGeometry relative="1" as="geometry"><Array as="points"><mxPoint x="50" y="242"/></Array></mxGeometry></mxCell><mxCell id="9" value="Transition 3" style="curved=1;startArrow=none;;exitX=0.7850918901657595;exitY=-0.00892504523782169;entryX=0.7850918901657595;entryY=0.9904157975140739;" edge="1" parent="1" source="5" target="3"><mxGeometry relative="1" as="geometry"><Array as="points"><mxPoint x="157" y="242"/><mxPoint x="157" y="140"/></Array></mxGeometry></mxCell></root></mxGraphModel>